<svg xmlns="http://www.w3.org/2000/svg" viewBox="0 0 56.673 56.673"><path d="M31.483 16.213a13.104 13.104 0 01-6.292 0c-10.756-2.66-19.762-1.64-19.658 18.643.053 10.39 9.783 23.862 20.009 21.557a12.76 12.76 0 015.589 0c10.226 2.305 19.956-11.167 20.009-21.557.104-20.282-8.901-21.303-19.657-18.643z" fill="#d13834"/><path d="M10.533 29.674a1 1 0 01-1-1c0-5.514 4.037-10 9-10a1 1 0 110 2c-3.859 0-7 3.589-7 8a1 1 0 01-1 1z" fill="#f75b57"/><path d="M28.265 19.999a1 1 0 01-.998-.968c-.135-4.232-1.761-9.545-5.922-11.764a1 1 0 11.942-1.765c4.914 2.62 6.827 8.673 6.979 13.465a.999.999 0 01-.968 1.031l-.033.001z" fill="#4c312c"/><path d="M28.176 23.592a6.25 6.25 0 01-4.45-1.845.999.999 0 111.414-1.414c.812.812 1.891 1.259 3.036 1.259s2.224-.447 3.035-1.259a.999.999 0 111.414 1.414 6.248 6.248 0 01-4.449 1.845z" fill="#994530"/><path d="M27.305 13.04l.609-4.086A9.916 9.916 0 0136.26.608L40.345 0l-.609 4.086a9.916 9.916 0 01-8.346 8.346l-4.085.608z" fill="#659c35"/></svg>