<svg xmlns="http://www.w3.org/2000/svg" viewBox="0 0 56.041 56.041"><path fill="#88c057" d="M20.231 33.474h19.708v6.542H20.231z"/><path d="M39.939 38.016H17.832a1 1 0 110-2h22.107a1 1 0 110 2z" fill="#a46f3e"/><path d="M24.904 18.691l-.98 1.323v14.001h4v-14l.98-1.323a12.253 12.253 0 000-14.588L25.864 0l-2 2.7 1.039 1.403a12.252 12.252 0 01.001 14.588zm-.98 21.325V55.01c0 .556.451 1.006 1.006 1.006h1.987c.556 0 1.006-.451 1.006-1.006V40.016h-3.999z" fill="#88c057"/><path d="M20.276 41.031v13.971c0 .56.454 1.015 1.015 1.015h1.971c.56 0 1.015-.454 1.015-1.015V41.031c0-.56-.454-1.015-1.015-1.015h-1.971c-.56 0-1.015.454-1.015 1.015zm0-20.522v12.492c0 .56.454 1.015 1.015 1.015h1.971c.56 0 1.015-.454 1.015-1.015V20.35c0-.217.07-.429.199-.604l.334-.45a13.27 13.27 0 000-15.796L22.217 0l-2.592 3.499a13.27 13.27 0 000 15.796l.452.61c.13.175.199.387.199.604z" fill="#659c35"/><path d="M28.92 18.691l-.98 1.323v14.001h4v-14l.98-1.323a12.253 12.253 0 000-14.588L29.88 0l-2 2.7 1.039 1.403a12.255 12.255 0 01.001 14.588zm-.981 21.325v14.98c0 .563.457 1.02 1.02 1.02h1.96a1.02 1.02 0 001.02-1.02v-14.98h-4z" fill="#659c35"/><path d="M32.811 18.716l-.98 1.323v13.976h4V20.04l.98-1.323a12.253 12.253 0 000-14.588L33.772.026l-2 2.7 1.039 1.403a12.252 12.252 0 010 14.587zm-.98 21.3v15.008c0 .562.455 1.017 1.017 1.017h1.966c.562 0 1.017-.455 1.017-1.017V40.016h-4z" fill="#88c057"/><path d="M36.815 18.716l-.98 1.323v13.976h2.973c.567 0 1.027-.46 1.027-1.027V20.04l.98-1.323a12.253 12.253 0 000-14.588L37.776.026l-2 2.7 1.039 1.403a12.252 12.252 0 010 14.587zm-.98 21.3v14.998c0 .567.46 1.026 1.026 1.026h1.947c.567 0 1.026-.46 1.026-1.026v-13.96c0-.573-.465-1.038-1.038-1.038h-2.961z" fill="#659c35"/><path d="M13.818 42.137a.999.999 0 01-.707-1.707l4.121-4.121a.999.999 0 111.414 1.414l-4.121 4.121a.997.997 0 01-.707.293z" fill="#a46f3e"/><path d="M17.939 38.016a.997.997 0 01-.707-.293l-4.121-4.121a.999.999 0 111.414-1.414l4.121 4.121a.999.999 0 01-.707 1.707z" fill="#a46f3e"/><path d="M24.939 11.016a.997.997 0 01-.707-.293L21.939 8.43l-2.293 2.293a.999.999 0 11-1.414-1.414l3.707-3.707 3.707 3.707a.999.999 0 01-.707 1.707z" fill="#436b1c"/><path d="M24.939 16.016a.997.997 0 01-.707-.293l-2.293-2.293-2.293 2.293a.999.999 0 11-1.414-1.414l3.707-3.707 3.707 3.707a.999.999 0 01-.707 1.707z" fill="#436b1c"/><path d="M39.939 35.016h-20a1 1 0 110-2h20a1 1 0 110 2zm0 6h-20a1 1 0 110-2h20a1 1 0 110 2z" fill="#a46f3e"/></svg>