<svg xmlns="http://www.w3.org/2000/svg" viewBox="0 0 51.793 51.793"><path d="M40.876 5.316a1 1 0 01-.791-1.61c1.356-1.761 3.189-2.998 5.16-3.483C47.3-.282 49.26.079 50.767 1.241a1 1 0 11-1.22 1.584c-1.016-.783-2.372-1.015-3.824-.66-1.532.377-2.973 1.358-4.054 2.762a.998.998 0 01-.793.389z" fill="#4c312c"/><path d="M6.914 49.048c-8.105-5.784-7.778-17.04-2.347-25.858 1.985-3.223 4.705-5.931 7.785-8.131L26.934 4.643C30.75 1.338 35.193.431 39.445 3.466 43.698 6.5 44.284 10.997 42.4 15.68l-5.11 17.176c-1.079 3.628-2.756 7.08-5.159 10.005-6.574 8.003-17.112 11.971-25.217 6.187z" fill="#436b1c"/><path d="M9.582 45.309c-5.957-4.252-5.112-13.375-.45-20.794 1.704-2.712 3.948-5.046 6.444-6.988l7.891-5.04c2.423-1.547 4.814-3.153 7.05-4.96 2.226-1.8 4.15-2.558 6.606-.805 2.518 1.797 2.371 3.933 1.327 6.729a47.375 47.375 0 00-1.665 5.342L33.907 30.61c-1.025 2.992-2.503 5.873-4.514 8.366-5.501 6.82-13.853 10.585-19.811 6.333z" fill="#f9ea80"/><path d="M24.024 37.754c-2.832 3.969-7.81 5.273-11.117 2.912-3.307-2.36-3.692-7.491-.86-11.46s10.374-8.865 13.681-6.505 1.128 11.084-1.704 15.053z" fill="#a46f3e"/><circle cx="13.868" cy="35.044" r="1.5" fill="#dc9628"/><circle cx="17.894" cy="31.837" r="1.5" fill="#dc9628"/><circle cx="18.307" cy="37.344" r="1.5" fill="#dc9628"/></svg>