<svg xmlns="http://www.w3.org/2000/svg" viewBox="0 0 53.308 53.308"><path d="M39.685 2.953c-7.524 0-13.623 6.099-13.623 13.623 0 2.243.552 4.353 1.512 6.219a13.556 13.556 0 014.804-.888c5.281 0 9.851 3.011 12.111 7.404 5.15-1.944 8.819-6.905 8.819-12.735 0-7.524-6.1-13.623-13.623-13.623z" fill="#003879"/><path d="M18.754 35.53c0-5.652 3.443-10.499 8.345-12.561-.927-6.622-6.598-11.723-13.475-11.723C6.099 11.245 0 17.344 0 24.868s6.099 13.623 13.623 13.623c1.872 0 3.655-.379 5.279-1.062a13.514 13.514 0 01-.148-1.899z" fill="#1a49c1"/><circle cx="32.577" cy="35.53" r="14.825" fill="#415cce"/><path d="M28.103 32.153a.999.999 0 01-.57-1.823l2.841-1.964a3.053 3.053 0 013.704.186l2.165 1.839a1 1 0 01-1.295 1.525l-2.165-1.839a1.06 1.06 0 00-1.272-.064l-2.841 1.964a1.005 1.005 0 01-.567.176zm.503-3.556h-2.355a1 1 0 010-2h2.355c.48 0 .81-.283.839-.398l.45-1.788a1 1 0 011.94.488l-.45 1.788c-.276 1.089-1.47 1.91-2.779 1.91zm9.236 0a.897.897 0 01-.089-.004l-2.894-.256c-1.329-.118-2.405-1.042-2.502-2.149l-.126-1.446a1 1 0 01.909-1.083.985.985 0 011.083.909l.126 1.445c.025.069.27.294.686.331l2.895.256a1 1 0 01-.088 1.997zm-28.58-6.946a.999.999 0 01-.57-1.823l2.841-1.964a3.054 3.054 0 013.704.186l2.165 1.838a1 1 0 01-1.295 1.525l-2.166-1.839a1.059 1.059 0 00-1.271-.064l-2.84 1.964a1.004 1.004 0 01-.568.177zm.503-3.556H7.41a1 1 0 010-2h2.355c.48 0 .81-.283.839-.398l.45-1.788a1 1 0 011.94.488l-.45 1.788c-.275 1.089-1.47 1.91-2.779 1.91zm9.236 0a.897.897 0 01-.089-.004l-2.894-.256c-1.329-.118-2.405-1.042-2.502-2.149l-.126-1.445a1 1 0 01.909-1.083.985.985 0 011.083.909l.126 1.445c.025.069.27.295.686.332l2.895.256a1 1 0 01-.088 1.995z" fill="#121c60"/><path d="M35.262 13.153a.999.999 0 01-.57-1.823l2.841-1.964a3.053 3.053 0 013.704.186l2.165 1.838a1 1 0 01-1.295 1.525l-2.166-1.839a1.06 1.06 0 00-1.271-.064l-2.841 1.964a.999.999 0 01-.567.177zm.503-3.556H33.41a1 1 0 010-2h2.355c.48 0 .81-.283.839-.398l.45-1.788a1 1 0 111.94.488l-.45 1.788c-.275 1.089-1.47 1.91-2.779 1.91zm9.236 0a.897.897 0 01-.089-.004l-2.894-.256c-1.329-.118-2.405-1.042-2.502-2.149l-.126-1.445a1 1 0 01.909-1.083.986.986 0 011.083.909l.126 1.445c.025.069.27.295.686.332l2.895.256a1 1 0 01-.088 1.995z" fill="#0a1135"/><path d="M7.022 32.153a.986.986 0 01-.512-.142c-4.247-2.539-3.635-9.125-3.607-9.404.056-.549.55-.942 1.094-.895a1 1 0 01.896 1.093c-.005.056-.51 5.604 2.643 7.489a1 1 0 01-.514 1.859z" fill="#3265d6"/><path d="M24.35 43.307a.983.983 0 01-.512-.142c-4.247-2.539-3.635-9.125-3.607-9.404.056-.549.55-.944 1.094-.895a1 1 0 01.896 1.093c-.005.056-.51 5.604 2.643 7.489a1 1 0 01-.514 1.859z" fill="#447ce0"/><path d="M29.743 20.366a.997.997 0 01-.834-.448c-2.733-4.125.665-9.8.811-10.04a1 1 0 011.708 1.04c-.029.048-2.881 4.833-.853 7.896a1 1 0 01-.832 1.552z" fill="#1951a3"/></svg>