<svg xmlns="http://www.w3.org/2000/svg" viewBox="0 0 56.745 56.745"><path d="M45.146 13.699c0-.995-.563-1.851-1.387-2.307.39-.796.615-1.684.615-2.626 0-3.353-2.767-6.071-6.18-6.071-.892 0-1.738.189-2.504.524a5.04 5.04 0 00-4.062-2.042 5.033 5.033 0 00-4.398 2.554 5.833 5.833 0 00-3.327-1.036c-3.2 0-5.794 2.548-5.794 5.692 0 .235.019.466.047.693-2.274.769-3.91 2.883-3.91 5.378 0 1.946.995 3.662 2.511 4.688a4.847 4.847 0 00-.966 2.901c0 2.724 2.248 4.933 5.021 4.933a5.057 5.057 0 003.077-1.04 6.201 6.201 0 005.035 2.558 6.198 6.198 0 005.219-2.829 4.257 4.257 0 003.665 2.07c2.347 0 4.249-1.869 4.249-4.174 0-.517-.1-1.01-.275-1.467 1.524-.634 2.593-2.117 2.593-3.845 0-.818-.243-1.58-.658-2.224.846-.449 1.429-1.318 1.429-2.33z" fill="#88c057"/><path d="M22.832 26.543a5.024 5.024 0 01-2.021.437c-2.773 0-5.021-2.209-5.021-4.933 0-1.086.361-2.086.966-2.901-1.516-1.026-2.511-2.742-2.511-4.688 0-.942.235-1.83.648-2.611-1.657-.985-3.838-.786-5.269.619a4.338 4.338 0 00-.346.389c-1.607-.77-3.599-.503-4.934.808a4.181 4.181 0 00-1.189 3.762 3.727 3.727 0 00-2.061 1.026 3.622 3.622 0 000 5.187c.61.6 1.38.945 2.175 1.042a4.455 4.455 0 001.278 3.946 4.644 4.644 0 004.258 1.208 3.066 3.066 0 00.819 2.982 3.2 3.2 0 004.468 0c.277-.272.488-.583.641-.914a3.202 3.202 0 003.421-.682c.438-.43.717-.956.844-1.509a2.028 2.028 0 001.999-.486 1.942 1.942 0 00.505-1.929c.477-.165.918-.432 1.33-.753zm32.652-7.294a4.212 4.212 0 00-.396-.34 4.175 4.175 0 00-.823-4.847 4.353 4.353 0 00-3.83-1.168 3.62 3.62 0 00-1.044-2.024 3.781 3.781 0 00-5.281 0c-.095.094-.174.198-.256.299-.033.074-.06.152-.095.224.824.455 1.387 1.312 1.387 2.307 0 1.012-.583 1.881-1.43 2.329.414.644.658 1.405.658 2.224 0 1.728-1.069 3.211-2.593 3.845.175.457.275.95.275 1.467 0 2.305-1.902 4.174-4.249 4.174a4.28 4.28 0 01-1.553-.295c.052.059.082.129.138.184.438.43.973.705 1.536.83a1.941 1.941 0 00.495 1.964 2.025 2.025 0 001.964.496c.221.62.578 1.203 1.083 1.698a4.654 4.654 0 006.499 0 4.485 4.485 0 001.036-1.569 3.769 3.769 0 003.229-1.025 3.623 3.623 0 00.946-3.615 4.307 4.307 0 002.304-1.174 4.179 4.179 0 000-5.984z" fill="#659c35"/><path d="M40.387 30.918a2.028 2.028 0 01-1.964-.496 1.923 1.923 0 01-.561-1.104 1.768 1.768 0 00-.222-.635c-3.918 4.044-6.655 11.494-6.655 11.494 1.301-4.626 1.096-9.242.693-12.321a6.212 6.212 0 01-5.444.027c1.751 6.191.751 16.294.751 16.294-1.874-7.495-5.994-12.181-7.941-14.058a1.326 1.326 0 00-.352.393c-.14.254-.32.493-.539.709a3.2 3.2 0 01-3.421.682 3.093 3.093 0 01-.641.914c-.33.324-.717.555-1.127.706 5.021 0 10.78 9.994 11.523 20.655a1.501 1.501 0 001.498 1.392h5c.77 0 1.412-.577 1.499-1.341.459-4.056 1.876-21.012 9.746-21.012a4.64 4.64 0 01-.761-.599 4.509 4.509 0 01-1.082-1.7z" fill="#436b1c"/><path d="M23.468 15.177a.995.995 0 01-.364-.069 4.908 4.908 0 01-2.781-6.35 4.91 4.91 0 016.351-2.782 1 1 0 01-.729 1.863 2.904 2.904 0 00-3.759 1.646 2.904 2.904 0 001.646 3.759.999.999 0 01.567 1.295.998.998 0 01-.931.638z" fill="#659c35"/><path d="M49.084 25.647a4.901 4.901 0 01-1.786-.339 4.868 4.868 0 01-2.705-2.599 1 1 0 111.832-.802c.311.71.88 1.256 1.602 1.539a2.889 2.889 0 002.221-.045 2.882 2.882 0 001.538-1.602 2.878 2.878 0 00-.045-2.22 1 1 0 111.832-.802c.525 1.199.553 2.531.076 3.751s-1.399 2.181-2.599 2.706a4.93 4.93 0 01-1.966.413z" fill="#88c057"/><path d="M35.391 23.175a4.904 4.904 0 01-4.275-2.489 1 1 0 111.74-.985 2.887 2.887 0 001.75 1.369c.745.206 1.529.111 2.204-.27s1.161-1.002 1.369-1.75a2.885 2.885 0 00-.27-2.204 1 1 0 111.74-.985c.645 1.14.807 2.462.456 3.724s-1.172 2.311-2.312 2.955a4.85 4.85 0 01-2.402.635zm-3.51-5.397a4.875 4.875 0 01-2.128-.489 4.908 4.908 0 01-2.277-6.548 1.002 1.002 0 011.801.871 2.904 2.904 0 001.348 3.876 2.906 2.906 0 003.876-1.348 1 1 0 111.801.871 4.911 4.911 0 01-4.421 2.767zm-7.602 5.613a4.909 4.909 0 01-4.49-6.868 1 1 0 111.832.801 2.906 2.906 0 001.497 3.821 2.88 2.88 0 002.221.043 2.883 2.883 0 001.601-1.54 1 1 0 011.832.801 4.859 4.859 0 01-2.703 2.601 4.883 4.883 0 01-1.79.341zm11.125-10.912a4.867 4.867 0 01-3.79-1.782 1 1 0 111.543-1.273 2.88 2.88 0 001.961 1.042 2.853 2.853 0 002.124-.65 2.906 2.906 0 00.392-4.085 1 1 0 111.543-1.273 4.908 4.908 0 01-.661 6.9 4.874 4.874 0 01-3.112 1.121z" fill="#659c35"/><path d="M9.882 24.546a4.878 4.878 0 01-1.837-.359 4.908 4.908 0 01-2.699-6.385 1.001 1.001 0 011.854.752 2.901 2.901 0 105.378 2.182 1 1 0 011.854.752 4.914 4.914 0 01-4.55 3.058z" fill="#88c057"/></svg>