<svg xmlns="http://www.w3.org/2000/svg" viewBox="0 0 55 55"><path d="M47 8.5H8c-4.4 0-8 3.6-8 8v6c0 2.208.909 4.211 2.369 5.66C3.464 29.247 4 30.779 4 32.322v7.151c0 3.865 3.162 7.027 7.027 7.027h33.819c3.385 0 6.154-2.769 6.154-6.154V32.55c0-1.69.625-3.33 1.791-4.554A7.95 7.95 0 0055 22.5v-6c0-4.4-3.6-8-8-8z" fill="#a46f3e"/><path d="M22.762 8.5H8c-4.4 0-8 3.6-8 8v6c0 2.208.909 4.211 2.369 5.66C3.464 29.247 4 30.779 4 32.322v7.151c0 3.865 3.162 7.027 7.027 7.027h7.531c3.543 0 6.442-2.899 6.442-6.442v-8.203c0-1.406.633-2.704 1.631-3.695A7.958 7.958 0 0029 22.5v-7.762c0-3.431-2.807-6.238-6.238-6.238z" fill="#fbd490"/><path d="M46 30.5h-9a1 1 0 110-2h9a1 1 0 110 2zm-13 0h-2a1 1 0 110-2h2a1 1 0 110 2z" fill="#704928"/><path d="M9.5 35a.999.999 0 01-.707-1.707l1.5-1.5a.999.999 0 111.414 1.414l-1.5 1.5A.997.997 0 019.5 35zm8.093-7.107a.994.994 0 01-.605-.204L15.3 26.403a1 1 0 011.212-1.591l1.688 1.285a1 1 0 01-.607 1.796zM11.999 42.5a.994.994 0 01-.605-.204l-1.688-1.285a1 1 0 011.212-1.591l1.688 1.285a1 1 0 01-.607 1.795zm5.14-4.055a1 1 0 01-.285-1.959l2.033-.604c.53-.15 1.086.145 1.244.674a1 1 0 01-.673 1.244l-2.033.604a1.014 1.014 0 01-.286.041zM5.327 17a.999.999 0 01-.707-1.707l1.5-1.5a.999.999 0 111.414 1.414l-1.5 1.5a.997.997 0 01-.707.293zm2.499 7.5a.994.994 0 01-.605-.204l-1.688-1.285a1 1 0 011.212-1.591l1.688 1.285a1 1 0 01-.607 1.795zm16.193-.597a1 1 0 01-.985-.834l-.353-2.092a1 1 0 111.971-.332l.353 2.092a1 1 0 01-.986 1.166zm-11.053-3.458a1 1 0 01-.285-1.959l2.033-.604a1.001 1.001 0 01.571 1.918l-2.033.604a1.009 1.009 0 01-.286.041zm8.012-4.177a1 1 0 01-.362-.067l-1.978-.768a1 1 0 11.724-1.865l1.978.768a1 1 0 01-.362 1.932z" fill="#a46f3e"/><path d="M46.609 13.896c.586-1.674.671-3.62-1.001-5.113a1.186 1.186 0 00-.789-.283h-1.206c-.992 0-1.569 1.117-.991 1.922.7.975 1.315 2.114 1.668 3.393.315 1.14 1.928 1.197 2.319.081zm-9.392 0c.586-1.674.671-3.62-1.001-5.113a1.186 1.186 0 00-.789-.283h-1.206c-.992 0-1.569 1.117-.991 1.922.7.975 1.315 2.114 1.668 3.393.315 1.14 1.928 1.197 2.319.081z" fill="#775131"/></svg>