<svg xmlns="http://www.w3.org/2000/svg" viewBox="0 0 56.538 56.538"><path d="M34.685 22.808s12.342-7.316 20.178 3.022c0 0 2.032 2.35.47 4.6-1.537 2.212-4.968 1.742-6.676-.603-1.541-2.115-5.254-4.8-13.972-7.019z" fill="#88c057"/><path d="M34.685 22.808s7.506-12.152-2.145-19.301c0 0-3.185-2.863-6.062-1.844-2.676.947-2.746 4.678-.284 6.089 2.698 1.547 6.394 5.411 8.491 15.056zm19.919 3.658s.067.086.155.205c.257-.23.506-.478.732-.768 2.084-2.67.414-4.736.414-4.736-6.186-9.306-20.584.807-20.584.807.693.048 1.341.11 1.968.176 4.117-1.502 11.821-2.932 17.315 4.316z" fill="#88c057"/><path d="M32.541 3.507c7.445 5.514 4.681 14.002 3.028 17.596.003.081.009.154.012.235 0 0 10.275-14.236 1.555-19.836 0 0-2.779-2.377-5.999-.74a5.38 5.38 0 00-1.428 1.056c1.611.594 2.832 1.689 2.832 1.689z" fill="#a4e869"/><path d="M50.459 6.131c-3.647-2.363-8.276 1.205-8.276 1.205-.768.92-1.465 1.91-2.108 2.927-.638 4.649-3.667 9.674-5.173 11.934-.089.314-.164.589-.216.787 1.745-1.172 6.828-4.343 11.824-5.164 1.24-.822 2.422-1.725 3.451-2.705 5.515-5.251.498-8.984.498-8.984z" fill="#659c35"/><path d="M34.685 22.808s12.342-7.316 20.178 3.022c0 0 2.032 2.35.47 4.6-1.537 2.212-4.968 1.742-6.676-.603-1.541-2.115-5.254-4.8-13.972-7.019z" fill="#a4e869"/><path d="M35.376 21.701c-.281.547-.472.857-.472.857s.468-.276 1.272-.643a47.202 47.202 0 00-.8-.214z" fill="#f2681c"/><path d="M41.809 28.277c.421-1.172.395-2.334.132-3.429-1.879-.789-4.186-1.565-7.037-2.29-.691-3.177-1.556-5.716-2.501-7.762-1.303-.453-2.728-.614-4.17-.096C23.708 16.326 3.81 44.955.089 54.937c-.35.939.387 1.675 1.325 1.325 9.982-3.721 38.769-23.461 40.395-27.985z" fill="#ed8f20"/><g fill="#dd7017"><path d="M8.236 46.857a12.2 12.2 0 01-1.947-1.168 1 1 0 00-1.182 1.612c.718.527 1.481.985 2.267 1.36a1.001 1.001 0 00.862-1.804zm30.925-19.033c-2.046-.78-3.945-2.182-5.642-4.167a1 1 0 10-1.52 1.3c1.917 2.242 4.087 3.836 6.45 4.737a1.002 1.002 0 001.291-.579 1.002 1.002 0 00-.579-1.291zm-16.439-7.876a1 1 0 01.748.854c.179 1.632 1.022 3.747 2.505 4.792a1 1 0 11-1.154 1.634c-2.001-1.411-2.996-3.947-3.284-5.847"/><path d="M24.821 27.228a.997.997 0 001.394-.24 1 1 0 00-.24-1.394c-1.482-1.046-2.326-3.161-2.505-4.792a1 1 0 00-.748-.854c-.385.457-.779.931-1.185 1.432.288 1.901 1.283 4.437 3.284 5.848zm5.527 11.35c-1.89-.306-4.369-1.302-5.758-3.271a1.001 1.001 0 011.635-1.153c1.045 1.481 3.16 2.326 4.792 2.505a.99.99 0 01.856.782"/><path d="M31.018 36.659c-1.633-.179-3.748-1.023-4.792-2.505a1 1 0 00-1.635 1.153c1.389 1.969 3.868 2.965 5.758 3.271.519-.383 1.028-.761 1.525-1.136a.991.991 0 00-.856-.783zM14.756 30.41c.399.094.72.424.768.856.112 1.025.635 2.349 1.549 2.995a1 1 0 11-1.154 1.634c-1.328-.937-2.04-2.56-2.299-3.865"/><path d="M15.92 35.895a.999.999 0 001.154-1.634c-.915-.646-1.437-1.969-1.549-2.995a.992.992 0 00-.768-.856 227.29 227.29 0 00-1.136 1.62c.259 1.305.971 2.928 2.299 3.865zm2.104 11.152c-1.357-.177-3.244-.888-4.285-2.365a1 1 0 011.634-1.154c.646.915 1.969 1.437 2.994 1.549a1 1 0 01.885 1.103c-.003.031-.02.057-.026.087"/><path d="M18.367 45.078c-1.025-.112-2.349-.635-2.994-1.549a1 1 0 10-1.634 1.154c1.042 1.477 2.928 2.188 4.285 2.365.4-.257.801-.518 1.202-.779.006-.03.023-.056.026-.087a1 1 0 00-.885-1.104z"/></g></svg>