<svg xmlns="http://www.w3.org/2000/svg" viewBox="0 0 48.013 48.013"><path d="M41.795 17.474l-7.654 1.124c-5.188.762-16.797.748-21.976-.042l-7.101-1.083c-1.125 0-2.037-.612-2.037-1.367v-.199c0-2.461 2.974-4.902 6.642-4.902h27.523c3.668 0 6.642 2.441 6.642 4.902v.199c-.001.756-.913 1.368-2.039 1.368z" fill="#96683b"/><path d="M23.513.006c-9.321 1.125-14.5 11-14.5 11h29s-5.179-9.875-14.5-11z" fill="#e6e6e6"/><path d="M47.584 44.427l-3.106-3.106c.001-.188.012-.375-.009-.566l-2.822-23.259-7.506 1.103c-5.188.762-16.797.748-21.976-.042l-6.385-.973-2.262 23.221c-.02.183-.009.362-.009.542L.43 44.426c-.984.984-.149 2.653 1.228 2.457l5.437-.777c.094.027.181.068.278.09a76.008 76.008 0 0032.154.179l1.034-.218c.079-.017.149-.05.226-.07l5.57.796c1.376.197 2.211-1.473 1.227-2.456z" fill="#af875c"/><circle cx="28.879" cy="6.873" r="1.134" fill="#fff"/><circle cx="22.078" cy="6.873" r="1.134" fill="#fff"/><circle cx="25.479" cy="4.606" r="1.134" fill="#fff"/><path d="M22.822 38.429h-2.491a5.342 5.342 0 01-5.342-5.342v-2.491h2.491a5.342 5.342 0 015.342 5.342v2.491zm3.482 0h2.491a5.342 5.342 0 005.342-5.342v-2.491h-2.491a5.342 5.342 0 00-5.342 5.342v2.491zm-1.748-3.916l1.762-1.762a5.341 5.341 0 000-7.554l-1.762-1.762-1.762 1.762a5.341 5.341 0 000 7.554l1.762 1.762z" fill="#f9d70b"/></svg>