<svg xmlns="http://www.w3.org/2000/svg" viewBox="0 0 56.438 56.438"><path d="M25.208 55.113a.998.998 0 01-.708-1.706l3.967-3.974a.997.997 0 011.414-.001.999.999 0 01.001 1.414l-3.967 3.974a.99.99 0 01-.707.293z" fill="#a46f3e"/><path d="M29.175 56.438a1 1 0 01-1-1v-5.299a1 1 0 012 0v5.299a1 1 0 01-1 1z" fill="#a46f3e"/><path d="M33.142 55.113c-.256 0-.512-.098-.708-.293l-3.967-3.974a.999.999 0 111.415-1.413l3.967 3.974a.999.999 0 01-.707 1.706z" fill="#a46f3e"/><path d="M35.787 52.464a.948.948 0 01-.197-.02l-6.611-1.325a.999.999 0 01-.784-1.177.998.998 0 011.177-.784l6.611 1.325a1 1 0 11-.196 1.981z" fill="#a46f3e"/><path d="M22.563 52.354a1 1 0 01-.163-1.986l6.611-1.104a1 1 0 01.329 1.973l-6.611 1.104a1.183 1.183 0 01-.166.013z" fill="#a46f3e"/><path d="M30.486 0l-1.701.813s4.005 19.383-4.128 30.573c-7.193 9.897-.262 19.819 6.862 19.819h3.28c.21 0 .42-.053.627-.024 8.977 1.243 17.991-16.57 5.043-29.235-5.967-6.22-6.9-10.899-9.64-20.717L30.486 0z" fill="#d3d3d3"/><path d="M24.656 31.386c5.932-8.161 5.407-20.671 4.689-26.851-3.575 7.791-3.865 10.758-10.029 15.315-6.961 4.801-9.32 11.916-8.928 17.975-.025.335.445 13.49 11.319 13.312 1.859-.03 3.61-.504 5.157-1.353-4.886-3.085-7.769-10.747-2.208-18.398zM44.762 19.85c-4.929-3.643-8.445-5.52-11.485-10.105 1.517 4.668 3.262 8.104 7.192 12.2 11.104 10.861 6.054 25.497-1.27 28.665 1.009.317 2.068.509 3.173.527 10.875.177 11.344-12.978 11.319-13.312.391-6.06-1.968-13.174-8.929-17.975z" fill="#e6e6e6"/><path d="M10.327 37.825c-.392-6.06 1.967-13.174 8.928-17.975 3.078-2.275 4.691-4.154 5.98-6.434-3.467 2.274-7.949 3.941-11.323 6.434C6.951 24.651 2.338 31.765 2.73 37.825c-.025.335-.315 13.312 13.573 13.312.835 0 1.643-.12 2.423-.316-8.039-1.981-8.422-12.695-8.399-12.996z" fill="#d3d3d3"/></svg>