<svg xmlns="http://www.w3.org/2000/svg" viewBox="0 0 48.527 48.527"><path d="M47.11 33.655c3.156-8.4.519-17.266-7.282-25.067C31.932.692 22.944-1.918 14.454 1.42c5.694 8.791 11.379 7.84 11.379 7.84-6.539 7.697-3.867 14.728-3.424 15.752 1.024.443 8.055 3.115 15.752-3.424 0-.001-1.034 6.152 8.949 12.067z" fill="#698a25"/><path d="M38.161 21.587c-7.697 6.539-14.728 3.867-15.752 3.424-.443-1.024-3.115-8.055 3.424-15.752 0 0-4.646.752-9.743-5.589-2.553 1.1-5.051 2.823-7.433 5.205C-.764 18.297-1.971 40.49 2.971 45.432c5.348 5.483 27.135 3.735 36.557-5.687 2.439-2.439 4.178-4.999 5.273-7.615-7.477-5.401-6.64-10.543-6.64-10.543z" fill="#914d2b"/><path d="M7.023 47.631c-2.172 0-3.832-.539-4.855-1.589A.999.999 0 113.6 44.646c.809.829 2.597 1.155 4.923.896 5.285-.592 12.553-4.145 15.565-9.063a1 1 0 011.705 1.045c-3.457 5.645-11.364 9.368-17.048 10.006-.605.067-1.18.101-1.722.101z" fill="#af7e56"/><path d="M2.551 46.013a.998.998 0 01-.698-.284C.541 44.45.027 42.176.367 39.153c.637-5.685 4.36-13.591 10.006-17.049a1 1 0 111.045 1.705c-4.919 3.013-8.471 10.28-9.063 15.566-.26 2.319.066 4.113.896 4.922a1 1 0 01-.7 1.716z" fill="#af7e56"/><path d="M2.907 46.353c-.258 0-.518-.097-.716-.287-.47-.451-.68-1.132-.623-2.024.205-3.23 4.109-9.887 8.375-13.052a.999.999 0 111.191 1.605c-4.806 3.566-8.15 10.901-7.53 12.062a.98.98 0 01.015 1.397.984.984 0 01-.712.299z" fill="#af7e56"/></svg>