<svg xmlns="http://www.w3.org/2000/svg" viewBox="0 0 55.6 55.6"><path d="M24.1 54.2a.999.999 0 01-.707-1.707l4.2-4.2a.999.999 0 111.414 1.414l-4.2 4.2a.997.997 0 01-.707.293z" fill="#a5a5a5"/><path d="M28.3 55.6a1 1 0 01-1-1V49a1 1 0 112 0v5.6a1 1 0 01-1 1z" fill="#a5a5a5"/><path d="M32.5 54.2a.997.997 0 01-.707-.293l-4.2-4.2a.999.999 0 111.414-1.414l4.2 4.2A.999.999 0 0132.5 54.2z" fill="#a5a5a5"/><path d="M35.301 51.4a.948.948 0 01-.197-.02l-7-1.4a1 1 0 01-.784-1.177.995.995 0 011.177-.784l7 1.4a1 1 0 01-.196 1.981z" fill="#a5a5a5"/><path d="M21.299 51.167a1 1 0 01-.163-1.986l7-1.167a1 1 0 11.328 1.973l-7 1.167c-.055.008-.11.013-.165.013z" fill="#a5a5a5"/><path d="M29.3 6.076V0l-4 2v4.157C14.369 7.425 5.933 16.879 6.312 28.236c.366 10.957 9.166 20.038 20.108 20.721 12.5.78 22.88-9.126 22.88-21.457 0-11.368-8.829-20.651-20-21.424z" fill="#e9d3ea"/><path d="M28.3 50.203a.996.996 0 01-.311-.05c-6.107-1.993-11.777-7.503-14.442-14.04-2.516-6.167-2.23-12.764.803-18.576a1 1 0 111.774.925c-3.533 6.771-2.344 12.925-.725 16.896 2.453 6.015 7.639 11.076 13.212 12.894a1.001 1.001 0 01-.311 1.951z" fill="#9777a8"/><path d="M28.3 50.203a1.001 1.001 0 01-.31-1.951c5.573-1.818 10.759-6.879 13.212-12.894 1.619-3.971 2.809-10.125-.725-16.896a1.001 1.001 0 011.774-.925c3.033 5.812 3.318 12.409.803 18.576-2.665 6.536-8.335 12.047-14.442 14.04-.105.034-.209.05-.312.05z" fill="#9777a8"/><path d="M28.798 50.203a.986.986 0 01-.497-.133c-6.508-3.739-11.477-21.408-7.641-34.354a1.001 1.001 0 011.918.568c-3.802 12.831 1.498 29.052 6.719 32.051a.999.999 0 01.369 1.365.996.996 0 01-.868.503z" fill="#9777a8"/><path d="M27.802 50.203a1 1 0 01-.499-1.867c5.221-2.999 10.521-19.22 6.719-32.051a1.001 1.001 0 011.918-.568c3.836 12.946-1.133 30.615-7.641 34.354a1.006 1.006 0 01-.497.132z" fill="#9777a8"/><path d="M28.3 50a1 1 0 01-1-1V12a1 1 0 112 0v37a1 1 0 01-1 1z" fill="#9777a8"/></svg>