<svg xmlns="http://www.w3.org/2000/svg" viewBox="0 0 40.228 40.228"><path d="M28.502 12.364s-1.833 6.056 5 6 11.75 15.944-6 16H12.725c-17.75-.056-12.833-16.056-6-16s5-6 5-6h16.777z" fill="#dae7ef"/><path d="M27.504 34.864H12.726c-7.365-.024-10.442-2.708-11.725-4.957-1.427-2.499-1.322-5.743.273-8.467 1.314-2.242 3.336-3.576 5.416-3.576h.129c1.891 0 3.219-.494 3.95-1.471 1.164-1.555.484-3.861.478-3.885l-.195-.645h18.121l-.192.644c-.007.023-.681 2.344.48 3.89.742.989 2.134 1.478 4.037 1.467h.039c2.08 0 4.102 1.334 5.415 3.576 1.597 2.724 1.701 5.968.274 8.468-1.283 2.248-4.359 4.932-11.722 4.956zm-20.813-16c-1.721 0-3.421 1.149-4.553 3.082-1.109 1.894-1.763 4.849-.269 7.466 1.153 2.019 3.973 4.431 10.858 4.452h14.774c6.884-.021 9.703-2.434 10.856-4.452 1.494-2.617.841-5.572-.269-7.466-1.133-1.932-2.832-3.082-4.553-3.082h-.128c-2.224 0-3.821-.629-4.752-1.871-1.049-1.401-.938-3.188-.777-4.129h-15.53c.16.941.271 2.728-.777 4.129-.944 1.26-2.6 1.865-4.849 1.871h-.031z" fill="#bbd7ea"/><path d="M26.431 34.364H12.398c-3.653 0-4.408-1.957-2.673-4.352 1.659-2.289 4.365-7.725 6-9.99 2.485-3.443 6.288-3.569 9-.222 1.567 1.934 4.295 7.006 5.916 9.011 2.469 3.056.578 5.553-4.21 5.553z" fill="#dc9628"/><circle cx="20.725" cy="22.364" r="1" fill="#fbd490"/><circle cx="17.725" cy="25.364" r="1" fill="#fbd490"/><circle cx="22.725" cy="27.364" r="1" fill="#fbd490"/><path d="M32.725 12.364h-26c-1.1 0-2-.9-2-2v-3c0-1.1.9-2 2-2h26c1.1 0 2 .9 2 2v3c0 1.1-.9 2-2 2z" fill="#d2d5d7"/></svg>